<?xml version="1.0" encoding="UTF-8"?>
<svg xmlns="http://www.w3.org/2000/svg" version="1.1" viewBox="0 0 300 300">
  <!-- Generator: Adobe Illustrator 30.4.0, SVG Export Plug-In . SVG Version: 2.1.4 Build 226)  -->
  <defs>
    <style>
      .st0 {
        fill: #b9322d;
      }

      .st1 {
        fill: none;
        stroke: #000;
      }

      .st2 {
        fill: #c23030;
      }

      .st3 {
        fill: #fff;
      }

      .st4 {
        fill: #264261;
      }

      .st5 {
        fill: #e6a83c;
      }

      .st6 {
        fill: #eb612d;
        stroke: #5c0909;
      }

      .st7 {
        fill: #6a1611;
      }

      .st8 {
        fill: #cb452a;
      }

      .st9 {
        fill: #9c231f;
      }

      .st10 {
        fill: #378fc4;
      }

      .st11 {
        fill: #27557c;
      }

      .st12 {
        fill: #ed8353;
      }

      .st13 {
        fill: #491f13;
      }

      .st14 {
        fill: #1a324c;
      }

      .st15 {
        fill: #c49032;
      }

      .st16 {
        fill: #613a2b;
      }
    </style>
  </defs>
  <g id="_Слой_21" data-name="Слой_21">
    <path class="st5" d="M44.47,156.55c-1.27-3.28-5.16-14.51-.26-26.55,2.33-5.72,5.65-9.21,6.38-9.96,9.88-10.13,20.01-4.9,30.66-10.98,15.22-8.69,6.84-26.41,26.79-46.21,2.49-2.47,15.27-14.75,22.72-11.13,2.46,1.2,3.54,3.73,4.85,6.78,4.35,10.15-.55,15.99,3.83,21.7,3.55,4.63,9.88,4.84,10.47,4.85.84.02,6.73.04,10.21-4.09,4.23-5,.04-10.3,4.1-21.07,2.21-5.87,4.53-7.14,5.35-7.53,1.5-.7,4.57-1.51,10.72,1.5,10.05,4.91,15.63,13.79,17.36,16.63,20.64,33.76,18.17,34.79,24.26,39.83,12.94,10.72,22.23,4.52,31.14,16.04,7.7,9.95,9.12,25.38,3.44,30.17-1.9,1.6-3.58,1.16-12.37,2.04-9.2.93-13.66,2.05-17.38,2.55-16.5,2.24-49.18-3.45-75.3-4.09-35.95-.87-42,8.25-79.17,4.3-11.77-1.25-21.38-3.26-27.81-4.81Z"/>
  </g>
  <g id="_Слой_23" data-name="Слой_23">
    <path class="st15" d="M184.95,56.63c-1.65.54-1.57,5.01-1.52,6.88.61,21.5,7.53,45.19,1.46,53.72-8.29,11.65-34.93-13.43-69.96-3.32-24.31,7.02-54.54,31.42-65.36,23.74-.93-.66-4.29-3.38-6.21-2.3-1.64.93-1.5,4.22-1.2,9.7.3,5.52.46,8.28,1.2,9.48,5.65,9.12,42.11-1.8,41.7-4.63-.16-1.12-6.07-.56-6.13-1.28-.15-2.03,48.06-17.49,99.56-8.62,38.88,6.7,71.38,25.83,78.95,15.55,2.49-3.38,2.51-10.24,2.51-11.53,0-1.47-.1-10.82-6.33-18.17-6.29-7.42-11.97-4.72-23.55-11.96-9.02-5.64-14.26-12.71-16.41-15.67-6.69-9.21-7.87-16.36-15.44-28.08-.82-1.27-3.46-4.22-8.74-10.12-1.99-2.22-3.43-3.77-4.54-3.41Z"/>
  </g>
  <g id="_Слой_22" data-name="Слой_22">
    <path class="st4" d="M53.66,157.83c1.73,1.06,4.44,1.51,9.86,2.41,4.31.72,7.95,1.01,9.84,1.11,12.4.62,53.61-2.41,76.65-2.25,23.35.16,65.28,3.83,76.74,2.05,1.04-.16,4.12-.72,9.47-1.53,8.5-1.28,9-1.11,10.21-1.79,6.51-3.63,9.1-18.06,3.27-25.79-2.4-3.19-6.6-4.93-14.98-8.43-6.13-2.55-6-1.78-9.96-3.57-11.61-5.25-17.97-14.25-19.69-16.85-1.12-1.7-.94-1.68-5.62-11.99-8.43-18.61-10.51-21.95-13.79-25.28-4.34-4.42-11.23-9.28-14.04-7.43-1.63,1.07-.74,3.65-1.18,10-.46,6.69-.85,12.25-4.18,16.58-5.13,6.66-14.54,6.89-16.18,6.89-1.51,0-7.48.03-12.41-3.57-11.5-8.42-5.36-27.91-11.39-29.9-5.59-1.85-16.72,12.97-22.57,25.05-4.8,9.9-3.43,12.57-8.94,20.43-2.78,3.96-8.44,12.05-18.38,16.09-3.77,1.53-5.1,1.24-12.86,4.09-7.01,2.57-10.52,3.86-12.25,5.67-6.81,7.14-4.99,23.49,2.39,28.03Z"/>
  </g>
  <g id="_Слой_24" data-name="Слой_24">
    <path class="st14" d="M54.99,158.09c2.33,1.59,4.97,1.88,10.18,2.4,1.45.14,5.61.56,9.17.41,11.48-.47,49.65-8.11,65.11-9.7,29.35-3.02,56.87,7.53,87.3,9.96,1.86.15,9.92.7,18.52-3.06,3.15-1.38,5.91-2.63,7.67-5.36,3.89-6.05.43-15.62-3.24-21.19-9.68-14.66-23.99-6.32-37.23-20.17-7.09-7.42-4.44-11.34-19.15-34.33-7.08-11.07-9.02-12.23-9.96-11.88-4.38,1.63,14.35,35.21,2.3,50.3-13.14,16.45-47.94-7.79-81.45,12.51-7.21,4.36-13.03,9.99-24,11.23-15.11,1.71-26.37-6.43-30.63-1.28-2.79,3.37-.64,10.07,0,12.09.62,1.93,1.89,5.68,5.41,8.09Z"/>
  </g>
  <g id="_Слой_2" data-name="Слой_2">
    <path class="st6" d="M69.74,167.53c3.19-5.99,8.84-14.78,18.38-22.47,20.09-16.18,43.3-16.13,62.04-16.09,18.89.04,42.35.1,62.3,16.6,9.14,7.56,14.55,16.1,17.62,21.96"/>
  </g>
  <g id="_Слой_3" data-name="Слой_3">
    <path class="st6" d="M69.74,167.53c2.98,7.5,9.22,20.06,21.96,30.13,18.27,14.44,38.68,14.89,58.21,15.32,19.75.43,37.15.81,54.13-10.72,16.25-11.04,23.26-26.97,26.04-34.72"/>
  </g>
  <g id="_Слой_31" data-name="Слой_31">
    <path class="st8" d="M199.5,162.33c-.4.77,5.81,2.88,7.09,7.97.9,3.57-1.07,6.9-3.57,11.03-1.41,2.32-4.98,8.09-10.92,12.77-14.72,11.6-38.03,11.75-39.89,11.74,0,0-30.76-.11-53.36-21.7-2.08-1.99-9.65-9.54-7.66-13.84.51-1.09,1.95-2.16,4.85-4.29,4.1-3.02,5.9-3.64,5.76-4.11-.29-.95-7.8,1.15-20.55,3.09-9.12,1.39-10.67,1.13-11.51,2.55-3.09,5.21,10.35,21.01,25.02,30.81,22.04,14.71,45.46,14.93,55.31,14.9,9.71-.03,31.96-.38,53.46-14.21,16.86-10.84,29.33-27.45,26.55-31.5-1.41-2.06-5.71.67-15.57-1.02-8.36-1.44-14.59-4.99-15.01-4.18Z"/>
    <path class="st8" d="M150.97,205.89"/>
  </g>
  <g id="_Слой_4" data-name="Слой_4">
    <path class="st6" d="M73.32,176.21c-1.81-1.56-5.85.05-8.94,1.28-3.16,1.26-5.5,2.19-6.64,4.6-1.66,3.5.35,7.7,2.3,9.96.87,1,2.98,3.45,5.49,3.32,6.16-.31,11.39-16.03,7.79-19.15Z"/>
  </g>
  <g id="_Слой_5" data-name="Слой_5">
    <path class="st6" d="M40.89,204.55h0s5.29,9.1,9.7,8.68c1.17-.11,1.82-.85,6.53-7.91,5.16-7.74,5.54-8.59,5.72-9.95.69-5.15-2.2-11.46-5.58-11.87-2.55-.31-4.9,2.98-9.49,9.57-3.23,4.63-5.47,8.7-6.89,11.49Z"/>
  </g>
  <g id="_Слой_6" data-name="Слой_6">
    <path class="st6" d="M43.45,235.7c-1.01-1.35-2.24-3.22-3.32-5.62-4.73-10.54-3.33-24.36.77-25.53,3.01-.86,8.49,4.83,8.68,10.21.08,2.28-.82,3.69-2,6.4-1.45,3.3-3.16,8.12-4.12,14.54Z"/>
  </g>
  <g id="_Слой_7" data-name="Слой_7">
    <path class="st6" d="M65.81,198.36c-1.61-.2-3.03,2.53-5.26,6.45-4,7.02-4.74,12.57-5.36,17.62-.33,2.67-.25,3.64.26,4.6,2.03,3.82,9.67,5.05,13.02,2.04,1.2-1.08,1.81-2.67,2.55-4.6.51-1.32,1.05-2.74,1.02-4.38-.05-2.43-1.49-3-2.3-5.57-.8-2.57.13-3.37,0-6.64-.15-4.01-1.8-9.25-3.93-9.51Z"/>
    <path class="st6" d="M74.5,251.53c-1.21,1.17-5.7-1.67-6.29-2.04-8.27-5.24-15.2-16.42-12.26-20.24,2.1-2.73,9.52-2.08,12.77,1.5,2.39,2.64.75,4.91,3.32,12.61,1.61,4.84,3.38,7.28,2.46,8.17Z"/>
    <path class="st6" d="M94.77,196.89"/>
    <path class="st6" d="M205.06,196.61"/>
  </g>
  <g id="_Слой_8" data-name="Слой_8">
    <path class="st6" d="M74.5,251.53"/>
    <path class="st6" d="M94.77,196.89c2.34-5.79,1.44-12.95-2.55-18.13-.78-1.01-5.49-7.12-11.74-6.64-8.08.62-12.48,11.75-13.53,18.38-.27,1.7-2.14,13.5,4.18,17.61,6.62,4.29,19.71-1.46,23.65-11.22Z"/>
  </g>
  <g id="_Слой_9" data-name="Слой_9">
    <path class="st6" d="M73.32,200.21c2.89-3.26,7.87-4.97,12.26-4.85,6.3.17,10.66,4.11,12.04,5.35.73.66,2.02,1.91,3.27,3.75,6.45,9.41,1.4,18.34,7.15,23.09,1.99,1.65,3.7,1.49,6.38,4.31,2.15,2.27,1.96,3.33,3.83,4.85,3.59,2.92,7.72,1.81,8,2.96.35,1.41-5.31,5-11.69,6.48-10,2.32-24.01-.03-33.59-9.96-9.82-10.18-14.72-28.03-7.66-36Z"/>
  </g>
  <g id="_Слой_10" data-name="Слой_10">
    <path class="st6" d="M94.77,198.34c3.41-4.03,17.08-.82,24,7.75,6.97,8.62,5.82,21.11,4.34,21.5-.74.2-1.12-2.71-4.09-5.16-4.58-3.78-9.31-1.49-14.2-3.31-8.29-3.09-13.49-16.71-10.06-20.78Z"/>
  </g>
  <g id="_Слой_11" data-name="Слой_11">
    <path class="st6" d="M227.79,175.57c1.34-.93,4.14.69,8.94,3.46,3.33,1.92,4.99,2.88,5.62,4.45,1.76,4.44-3.36,12.12-7.28,11.89-5.71-.34-10.51-17.57-7.28-19.8Z"/>
  </g>
  <g id="_Слой_12" data-name="Слой_12">
    <path class="st6" d="M243.87,183.48c2.05-.14,5.05,4.29,10.98,13.16,3.83,5.73,4.53,7.19,4.34,9.19-.44,4.63-5.35,9.24-9.45,8.72-2.48-.31-4.38-3.46-8.17-9.74-2.93-4.85-4.39-7.33-4.46-9.95-.13-5.12,3.18-11.14,6.76-11.38Z"/>
  </g>
  <g id="_Слой_13" data-name="Слой_13">
    <path class="st6" d="M249.74,214.55c-.17,1.55.07,2.69,1.79,7.62,3.13,8.99,4.72,13.49,5.87,13.53,2.78.1,6.18-9.75,5.87-18.89-.09-2.74-.38-11.3-4.06-12.34-3.34-.95-8.85,4.49-9.47,10.08Z"/>
  </g>
  <g id="_Слой_14" data-name="Слой_14">
    <path class="st6" d="M232.13,196.61c2.57-.54,6.26,7.84,8.5,12.95,3.78,8.6,6.18,14.05,3.5,18.04-2.49,3.71-8.83,5.35-12.51,3.15-1.24-.74-2.93-2.36-3.43-4.57-.35-1.54,0-2.83.11-3.24,1.94-7.48.18-25.55,3.83-26.32Z"/>
  </g>
  <g id="_Слой_15" data-name="Слой_15">
    <path class="st6" d="M231.62,230.75c-1.68,2.14-1.12,3.51-2.55,8.94-2.21,8.4-5.14,11.07-4.09,12.13,1.63,1.63,10.68-2.75,15.83-10.49,2.35-3.53,6.02-10.97,3.32-13.72-2.39-2.44-9.37-.84-12.51,3.15Z"/>
  </g>
  <g id="_Слой_16" data-name="Слой_16">
    <path class="st6" d="M205.06,198.35c-4.42-7.68.87-16.44,1.53-17.54.73-1.21,5.5-9.11,12.13-8.71,6.35.39,9.95,8.12,12.38,13.37,1.61,3.46,3.18,6.99,2.04,11.12-1.17,4.22-4.47,6.52-5.11,6.95-6.52,4.35-18.42,2.74-22.97-5.18Z"/>
  </g>
  <g id="_Слой_17" data-name="Слой_17">
    <path class="st6" d="M205.06,198.35c-4.81,3.26-6.69,9.03-7.4,11.21-2.76,8.45.27,14.32-4.09,18.23-1.62,1.45-2.59,1.14-5.36,3.57-2.89,2.55-3.06,3.97-5.25,5.87-4.03,3.48-8.41,2.45-8.54,3.58-.2,1.67,8.98,5.77,19.15,5.62,3.57-.06,15.07-.76,24.85-9.45,9.55-8.48,18.8-25.78,11.66-35.17-5.06-6.65-17.72-8.42-25.02-3.46Z"/>
  </g>
  <g id="_Слой_18" data-name="Слой_18">
    <path class="st6" d="M201.23,200.21c-3.94-3.66-15.2.68-20.94,7.91-6.19,7.81-5.76,18.75-3.83,19.43,1.62.57,3.35-6.43,9.96-8.45,4.52-1.39,6.55,1.03,9.85-.44,5.96-2.65,8.91-14.78,4.96-18.46Z"/>
  </g>
  <g id="_Слой_19" data-name="Слой_19">
    <path class="st0" d="M87.62,144.3c-.91-2.25,26.83-23.41,62.3-23.49,35.71-.08,63.71,21.25,62.81,23.49-.82,2.05-25.33-12.77-62.55-12.77-37.21,0-61.72,14.83-62.55,12.77Z"/>
  </g>
  <g id="_Слой_20" data-name="Слой_20">
    <path class="st9" d="M170.09,129.23c1.36-1.82-1.5-4.98-.51-6.37,1.23-1.75,7.48.66,12.77,2.8,19.6,7.94,23.74,11.42,25.53,13.02,4.55,4.07,8.24,8.9,7.64,9.57-.57.64-4.7-2.8-12.19-6.76-1.16-.61-7.3-3.82-14.46-6.2-11.66-3.87-22.92-4.5-22.86-5.01.03-.26,2.98.43,4.09-1.05Z"/>
  </g>
  <g id="_Слой_25" data-name="Слой_25">
    <circle cx="121.81" cy="150.4" r="8.7"/>
    <circle cx="178.77" cy="150.4" r="8.7"/>
  </g>
  <g id="_Слой_26" data-name="Слой_26">
    <circle class="st3" cx="122.72" cy="147.58" r="3.96"/>
    <circle class="st3" cx="178.13" cy="147.58" r="3.96"/>
  </g>
  <g id="_Слой_27" data-name="Слой_27">
    <path class="st1" d="M130,164.98c.38.56,8.02,11.36,21.19,10.59,11.45-.67,17.67-9.53,18.38-10.59"/>
  </g>
  <g id="_Слой_28" data-name="Слой_28">
    <path class="st12" d="M91.7,150c-1.94,1.54-5.15,4.82-4.34,6.3.53.96,2.57.8,3.57.72,1.6-.13,3.23-.69,5.1-1.99,2.95-2.05,6.52-5.92,5.62-7.4-.84-1.39-5.24-.11-5.62,0-2.1.63-3.47,1.69-4.34,2.38Z"/>
  </g>
  <g id="_Слой_29" data-name="Слой_29">
    <path class="st12" d="M96.04,168.04c-.02-3.8,6.18-7.15,11.24-7.66,4.17-.42,10.65.77,11.74,4.6,1.11,3.9-3.78,9.13-8.94,10.33-6.4,1.49-14.02-3.06-14.05-7.26Z"/>
    <path class="st12" d="M180.81,164.98c.98-3.74,7.58-5.11,12-4.68,4.38.43,10.45,3,10.71,6.72.29,4.08-6.46,8.92-12.63,8.17-5.75-.71-11.11-6.3-10.08-10.21Z"/>
  </g>
  <g id="_Слой_30" data-name="Слой_30">
    <path class="st8" d="M87.23,144.92c.19.69,12.43-3.21,33.07-5.73,0,0,30.54-3.73,52.09.51,3.81.75,8.09,1.94,14.04,3.57,6.32,1.74,8.11,2.41,10.21,3.7,4.51,2.77,7.23,6.43,8.17,7.79,3.51,5.08,2.4,7.15,5.54,9.75,2.3,1.91,4.75,2.35,8.92,3.09,4.13.74,9.69,1.73,10.82-.08,1.87-2.98-8.2-13.77-17.34-20.56-30.47-22.62-71.74-16.33-84.28-14.42-23.01,3.51-41.47,11.51-41.24,12.37Z"/>
  </g>
  <g id="_Слой_32" data-name="Слой_32">
    <path class="st16" d="M206.85,85.83c-.9.01-1.35-1.47-3.32-5.56-4.3-8.96-5.32-8.51-5.87-11.8-.46-2.76.29-5.76,1.79-11.74.92-3.66,2.11-8.45,3.59-8.43,1,.02,1.2,2.22,3.81,5.87,1.41,1.97,3.24,3.95,3.57,3.73.66-.43-6.8-7.8-5.36-15.38.73-3.84,3.98-6.68,10.47-12.34,5.79-5.06,7.37-4.78,7.91-4.63,3.37.95,4.12,7.76,4.59,12.07.61,5.53,1.15,10.42-1.29,15.03-4.44,8.37-15.95,10.53-15.81,10.88.15.38,13.28-5.02,14.04-3.6.61,1.13-7.89,4.26-12.81,13.13-3.59,6.48-3.46,12.76-5.32,12.79Z"/>
  </g>
  <g id="_Слой_33" data-name="Слой_33">
    <path class="st13" d="M203.53,68.98c3.48-5.44,5.22-8.16,5.5-8.51,7.21-8.68,8.59-20.32,9.4-20.09.8.22-.58,11.69-5.68,21.72-.77,1.51-.63,1.05-3.85,6.88-3.93,7.11-5.2,9.74-6.24,9.5-.93-.21-1.15-2.59-1.16-3.63-.03-2.58,1.17-4.5,2.04-5.87Z"/>
  </g>
  <g id="_Слой_34" data-name="Слой_34">
    <path class="st2" d="M206.85,85.83h0c.88,2.1,2.16,5.01,3.83,8.43,3.45,7.03,4.3,7.44,4.9,7.56,2.83.54,4.34-4.8,11.19-11.39,4.64-4.46,5.71-3.72,12.77-9.7,2.98-2.53,11.46-9.72,10.17-12-.48-.85-1.95-.36-8.89-.77-3.49-.21-6.04-.37-6.09-.84-.06-.62,4.16-1.56,6.85-2.02,7.43-1.28,9.08.04,11.37-1.58,1.85-1.32,1.71-2.86,3.7-10.88,2.53-10.21,3.8-11.95,2.58-13.28-1.38-1.5-6.14.03-15.6,3.15-10.19,3.36-12.23,4.83-13.53,7.05-.94,1.61-1.31,3.85-2.05,8.34-.95,5.81-.78,9.3-1.29,9.33-.56.04-1.37-4.06-1.77-7.32-.67-5.55-.12-8.7-.77-8.85-.75-.16-1.64,3.96-4.34,8.98-3.79,7.04-5.95,6.2-8.94,12.26,0,0-.74,1.5-4.09,13.53Z"/>
  </g>
  <g id="_Слой_35" data-name="Слой_35">
    <path class="st7" d="M210.06,91.63c-.42-2.97,1.84-5.3,5.21-9.38,5.08-6.15,3.4-5.03,6.89-8.94,9.13-10.22,26.78-24.77,27.53-23.92.54.62-9.63,7.3-20.63,22.38-9.01,12.34-14.01,24.06-17.23,23.05-1.33-.42-1.71-2.81-1.77-3.2Z"/>
  </g>
  <g id="_Слой_36" data-name="Слой_36">
    <path class="st10" d="M216.45,101.85c-.22-2.79,2.94-4.25,8.15-9.2,6.82-6.47,9-11.18,10.12-10.61,1.74.89-2.71,12.65-2.1,12.86.1.03.44-.2,2.83-5.49,3.23-7.16,3.31-8.28,4.93-9.4.74-.52,3.1-.85,7.79-1.51,4.21-.59,6.34-.88,7.71-.84,2.7.08,2.29.49,8.17,1.28,3.15.42,3.9.38,4.34,1.07.54.84.08,1.94-3.32,7.87-2.97,5.18-3.73,6.29-5.38,7.02-1.91.85-3.92.71-4.29.68-1.46-.12-1.97-.54-3.87-1.14-2.9-.92-6.13-1.36-6.26-.94-.13.4,2.58,1.67,4.45,2.55,3.79,1.79,4.71,1.77,4.94,2.55.52,1.83-3.42,5.62-7.97,6.38-1.58.26-2.09-.03-9.57-1.28-5.69-.95-6.73-1.01-6.8-.77-.15.5,3.88,2.14,4.88,2.55,4.92,2.01,7.45,2.25,7.45,3.06,0,.72-1.96.92-5.99,2.55-4.86,1.97-4.82,2.84-6.57,2.81-1.04-.02-2.25-.34-8.68-6.35-4.63-4.32-4.9-5-4.96-5.71Z"/>
  </g>
  <g id="_Слой_37" data-name="Слой_37">
    <path class="st11" d="M222.53,103.79c1.12-2,3.2-2.76,4.22-3.16,3.68-1.43,6.79-4.07,10.37-5.74,9.69-4.54,15.73-8.23,15.83-8.04.1.18-6.22,2.97-14.18,8.93-9.57,7.17-10.73,8.17-10.73,8.17-2.9,2.5-4.93,4.52-5.84,3.95-.76-.47-.52-2.6.33-4.12Z"/>
  </g>
</svg>